<svg class="svg-icon" style="width: 1em; height: 1em;vertical-align: middle;fill: currentColor;overflow: hidden;" viewBox="0 0 1024 1024" version="1.1" xmlns="http://www.w3.org/2000/svg"><path d="M923.428571 377.142857c5.028571 0 9.142857-4.114286 9.142858-9.142857v-68.571429c0-5.028571-4.114286-9.142857-9.142858-9.142857H736V100.571429c0-5.028571-4.114286-9.142857-9.142857-9.142858h-73.142857c-5.028571 0-9.142857 4.114286-9.142857 9.142858v189.714285H384V100.571429c0-5.028571-4.114286-9.142857-9.142857-9.142858h-73.142857c-5.028571 0-9.142857 4.114286-9.142857 9.142858v189.714285H100.571429c-5.028571 0-9.142857 4.114286-9.142858 9.142857v68.571429c0 5.028571 4.114286 9.142857 9.142858 9.142857h192v269.714286H100.571429c-5.028571 0-9.142857 4.114286-9.142858 9.142857v68.571429c0 5.028571 4.114286 9.142857 9.142858 9.142857h192v189.714285c0 5.028571 4.114286 9.142857 9.142857 9.142858h73.142857c5.028571 0 9.142857-4.114286 9.142857-9.142858V733.714286h260.571429v189.714285c0 5.028571 4.114286 9.142857 9.142857 9.142858h73.142857c5.028571 0 9.142857-4.114286 9.142857-9.142858V733.714286h187.428571c5.028571 0 9.142857-4.114286 9.142858-9.142857v-68.571429c0-5.028571-4.114286-9.142857-9.142858-9.142857H736V377.142857h187.428571zM644.571429 646.857143H384V377.142857h260.571429v269.714286z"  /></svg>